<?xml version="1.0" standalone="no"?>
<!DOCTYPE svg PUBLIC "-//W3C//DTD SVG 20010904//EN"
 "http://www.w3.org/TR/2001/REC-SVG-20010904/DTD/svg10.dtd">
<svg version="1.0" xmlns="http://www.w3.org/2000/svg"
 width="700.000000pt" height="700.000000pt" viewBox="0 0 700.000000 700.000000"
 preserveAspectRatio="xMidYMid meet">
<metadata>
Created by potrace 1.14, written by Peter Selinger 2001-2017
</metadata>
<g transform="translate(0.000000,700.000000) scale(0.100000,-0.100000)"
fill="#000000" stroke="none">
<path d="M3123 6984 c-684 -74 -1328 -347 -1861 -788 -124 -103 -355 -334
-458 -458 -387 -468 -648 -1029 -754 -1618 -68 -382 -68 -858 0 -1240 106
-589 367 -1150 754 -1618 103 -124 334 -355 458 -458 539 -446 1180 -715 1875
-789 179 -19 547 -19 726 0 694 74 1337 344 1875 789 124 103 355 334 458 458
445 538 715 1181 789 1875 19 179 19 547 0 726 -74 694 -344 1337 -789 1875
-103 124 -334 355 -458 458 -538 445 -1180 715 -1873 789 -173 18 -572 18
-742 -1z m607 -1688 c217 -29 377 -78 575 -176 357 -177 639 -459 814 -815
131 -265 191 -516 191 -805 0 -289 -60 -540 -191 -805 -175 -356 -458 -639
-814 -814 -265 -131 -516 -191 -805 -191 -289 0 -540 60 -805 191 -356 175
-639 458 -814 814 -131 265 -191 516 -191 805 0 289 60 542 190 805 240 484
691 841 1215 961 189 43 444 55 635 30z"/>
<path d="M3650 4565 c-140 -42 -748 -197 -823 -209 -97 -17 -153 -39 -167 -67
-10 -18 7 -126 72 -449 88 -439 96 -494 80 -512 -24 -28 -38 -21 -70 35 -16
28 -59 84 -94 122 -95 103 -102 118 -106 260 -2 66 -8 132 -13 146 -13 33 -47
49 -102 49 -89 0 -146 -71 -147 -182 0 -65 30 -156 61 -184 26 -24 49 -67 49
-93 0 -16 -11 -22 -57 -31 -167 -32 -205 -50 -235 -110 -24 -48 -22 -98 5
-153 15 -28 21 -51 16 -59 -15 -23 -9 -92 10 -121 13 -21 17 -40 13 -78 -4
-47 -3 -51 34 -84 22 -20 42 -39 46 -43 50 -56 71 -72 104 -81 112 -31 229 10
273 97 11 21 31 44 45 52 15 7 37 30 49 49 12 20 38 52 58 71 23 21 42 52 50
80 7 25 17 51 23 58 20 27 25 -23 24 -249 l-1 -227 28 -48 c16 -27 39 -71 52
-97 30 -61 57 -73 138 -58 33 6 96 15 140 21 166 23 519 118 633 171 35 16 66
29 69 29 4 0 39 20 79 45 50 31 74 53 78 71 9 34 33 271 41 406 7 105 7 107
27 97 12 -6 43 -9 69 -7 38 4 52 1 65 -13 24 -27 70 -43 90 -31 12 7 28 5 50
-4 43 -18 86 -18 176 2 58 12 104 14 226 9 168 -7 201 -1 221 41 29 64 2 117
-66 130 -62 11 -59 15 28 45 100 34 119 53 119 121 0 41 -5 54 -29 79 -37 37
-69 37 -193 4 -51 -14 -95 -25 -98 -25 -3 0 24 16 60 35 35 20 86 57 113 83
85 83 97 129 47 186 -52 59 -101 56 -179 -10 -35 -29 -38 -23 -16 29 25 61 20
104 -19 143 -64 64 -116 44 -181 -70 -36 -63 -103 -151 -149 -195 l-36 -35 0
59 c0 112 -59 185 -148 185 -77 0 -115 -67 -78 -138 30 -58 37 -131 24 -229
-8 -61 -17 -93 -25 -93 -20 0 -33 -35 -33 -89 0 -54 -1 -56 -29 -41 -16 8 -19
33 -25 257 -6 229 -26 524 -42 623 -9 57 -56 85 -112 66 -16 -5 -37 0 -70 16
-26 12 -49 23 -52 24 -3 1 -19 7 -36 14 -27 12 -32 20 -37 58 -7 64 -29 73
-117 47z m157 -151 c39 -19 77 -34 85 -35 16 -1 -82 -48 -102 -48 -13 -1 -13
0 0 9 21 14 9 12 -40 -5 -53 -19 -63 -19 -30 0 37 21 24 18 -90 -20 -57 -19
-105 -33 -107 -31 -3 2 39 18 92 36 106 35 126 52 24 20 -73 -23 -80 -24 -59
-9 11 8 6 9 -20 5 -30 -5 -29 -3 15 14 44 18 46 20 15 15 -26 -4 -31 -2 -20 6
11 8 6 9 -20 5 -26 -5 -30 -4 -15 3 16 8 17 10 3 10 -9 1 -27 -3 -40 -8 -36
-13 -84 -23 -77 -16 4 3 35 14 70 25 35 11 96 30 134 44 79 27 83 27 182 -20z
m-400 -60 c-3 -3 -12 -4 -19 -1 -8 3 -5 6 6 6 11 1 17 -2 13 -5z m70 0 c-3 -3
-12 -4 -19 -1 -8 3 -5 6 6 6 11 1 17 -2 13 -5z m-117 -14 c-8 -5 -24 -9 -35
-9 -16 1 -16 2 5 9 35 11 48 11 30 0z m70 0 c-8 -5 -22 -9 -30 -9 -10 0 -8 3
5 9 27 12 43 12 25 0z m57 -6 c-3 -3 -12 -4 -19 -1 -8 3 -5 6 6 6 11 1 17 -2
13 -5z m23 -14 c-8 -5 -22 -9 -30 -9 -10 0 -8 3 5 9 27 12 43 12 25 0z m250 0
c-8 -5 -19 -10 -25 -10 -5 0 -3 5 5 10 8 5 20 10 25 10 6 0 3 -5 -5 -10z
m-413 -6 c-3 -3 -12 -4 -19 -1 -8 3 -5 6 6 6 11 1 17 -2 13 -5z m303 -14 c-8
-5 -22 -9 -30 -9 -10 0 -8 3 5 9 27 12 43 12 25 0z m-220 -30 c-8 -5 -19 -10
-25 -10 -5 0 -3 5 5 10 8 5 20 10 25 10 6 0 3 -5 -5 -10z m70 0 c-8 -5 -22 -9
-30 -9 -10 0 -8 3 5 9 27 12 43 12 25 0z m65 0 c-27 -12 -43 -12 -25 0 8 5 22
9 30 9 10 0 8 -3 -5 -9z m65 0 c-8 -5 -19 -10 -25 -10 -5 0 -3 5 5 10 8 5 20
10 25 10 6 0 3 -5 -5 -10z m1120 -232 c0 -41 -80 -143 -144 -184 l-30 -19 8
25 c4 14 8 30 9 36 2 7 8 18 14 25 6 8 18 28 26 45 28 54 67 94 93 94 18 0 24
-5 24 -22z m-490 -31 c-19 -10 -25 -21 -25 -44 0 -17 -3 -29 -7 -26 -26 15 8
83 41 83 10 0 7 -5 -9 -13z m65 3 c3 -6 -1 -7 -9 -4 -18 7 -21 14 -7 14 6 0
13 -4 16 -10z m8 -48 c29 -30 35 -54 41 -147 4 -75 21 -112 60 -130 34 -17 80
-79 72 -98 -2 -7 -5 -4 -5 5 -2 35 -16 25 -17 -12 -2 -49 -32 -102 -67 -114
-64 -23 -143 55 -132 129 18 126 18 148 4 143 -8 -3 -16 -18 -19 -34 -3 -16
-5 41 -4 126 1 85 2 156 3 158 6 11 42 -3 64 -26z m-1420 1 c-7 -2 -19 -2 -25
0 -7 3 -2 5 12 5 14 0 19 -2 13 -5z m-465 -65 c17 -17 15 -51 -8 -137 -19 -72
-19 -135 1 -171 10 -18 12 -9 9 61 -1 26 3 64 9 85 6 22 12 58 14 81 2 23 6
45 9 48 10 10 28 -82 28 -142 0 -32 6 -76 13 -98 14 -45 47 -105 59 -105 4 0
8 -9 8 -20 0 -11 5 -20 10 -20 6 0 10 -5 10 -11 0 -6 13 -28 29 -48 31 -38 65
-126 56 -142 -4 -5 -1 -9 5 -9 13 0 11 -65 -3 -97 -12 -27 -65 -56 -97 -52
-34 5 -50 42 -50 115 0 61 -6 77 -68 189 -6 11 -13 29 -17 40 -5 16 -8 17 -15
5 -7 -11 -16 0 -35 45 -15 33 -37 74 -49 90 -66 90 -71 233 -9 282 31 25 72
30 91 11z m2498 -28 c1 -15 -9 -34 -26 -50 -28 -25 -144 -94 -180 -105 -30 -9
-25 19 6 44 15 12 23 21 19 21 -16 0 106 102 135 113 28 11 45 2 46 -23z
m-396 6 c0 -2 -8 -10 -17 -17 -16 -13 -17 -12 -4 4 13 16 21 21 21 13z m-649
-31 c22 -14 51 -44 66 -68 24 -37 28 -52 28 -121 0 -60 -4 -81 -14 -84 -8 -3
-30 -20 -49 -39 -33 -34 -37 -35 -96 -31 -68 5 -125 28 -144 58 -16 27 -26
126 -18 182 5 30 18 57 42 85 32 37 39 40 91 42 45 1 63 -3 94 -24z m-459 -14
c21 -2 73 -62 95 -110 22 -46 25 -65 20 -119 -6 -75 -25 -106 -85 -140 -59
-33 -119 -33 -162 -1 -19 15 -43 29 -52 32 -9 3 -24 30 -34 62 -15 48 -16 64
-6 112 21 99 103 177 176 169 23 -3 44 -5 48 -5z m1054 -19 c-17 -16 -18 -16
-5 5 7 12 15 20 18 17 3 -2 -3 -12 -13 -22z m164 -26 c0 -2 -8 -10 -17 -17
-16 -13 -17 -12 -4 4 13 16 21 21 21 13z m-48 -150 c44 -87 64 -206 34 -206
-8 0 -17 14 -21 33 -15 72 -37 137 -60 177 -11 19 -11 27 -2 39 9 12 9 13 0 7
-9 -5 -13 -1 -13 10 0 16 2 15 21 -2 12 -10 30 -36 41 -58z m405 -48 c18 -15
-1 -44 -37 -56 -82 -29 -208 -22 -198 11 3 6 40 22 83 35 43 12 81 25 84 28 7
7 52 -5 68 -18z m-784 -50 c12 -52 68 -193 77 -196 6 -2 10 -12 10 -23 0 -13
-5 -17 -17 -12 -12 5 -14 3 -8 -7 5 -9 4 -11 -3 -6 -7 4 -17 16 -23 28 -8 16
-8 19 1 13 9 -6 9 -2 1 14 -7 11 -14 21 -17 21 -3 0 -2 -4 1 -10 3 -5 4 -10 1
-10 -20 0 -61 148 -52 185 8 31 22 32 29 3z m-1029 -133 c-4 -8 -8 -15 -10
-15 -2 0 -4 7 -4 15 0 8 4 15 10 15 5 0 7 -7 4 -15z m406 5 c0 -5 -7 -10 -16
-10 -8 0 -12 5 -9 10 3 6 10 10 16 10 5 0 9 -4 9 -10z m-1250 -5 c0 -9 -56
-33 -107 -45 -29 -6 -50 -16 -47 -21 3 -5 0 -9 -5 -9 -6 0 -11 -9 -11 -20 0
-12 6 -20 13 -19 19 4 77 -12 77 -21 0 -5 23 -16 51 -25 59 -20 68 -34 42 -69
-29 -39 -82 -52 -149 -36 -33 8 -58 20 -61 29 -3 9 -16 27 -29 41 -17 19 -22
34 -19 60 2 19 4 40 4 46 2 23 41 56 88 74 42 17 153 28 153 15z m2231 -8 c56
-43 34 -87 -44 -87 -54 0 -99 35 -90 69 7 29 103 42 134 18z m247 6 c-10 -2
-26 -2 -35 0 -10 3 -2 5 17 5 19 0 27 -2 18 -5z m119 -62 c10 -21 9 -27 -5
-38 -26 -19 -85 -15 -132 10 -78 41 -63 56 55 54 63 -2 71 -4 82 -26z m-1067
-19 c0 -57 -246 -120 -370 -94 l-45 10 40 1 c30 1 36 4 25 11 -11 7 3 10 47
10 74 0 190 23 247 49 47 22 56 24 56 13z m467 2 c-19 -19 61 -52 153 -64 l55
-7 -46 -2 c-54 -1 -133 21 -160 45 -17 15 -18 34 -2 34 4 0 4 -3 0 -6z m283
-44 c-8 -5 -19 -10 -25 -10 -5 0 -3 5 5 10 8 5 20 10 25 10 6 0 3 -5 -5 -10z
m123 3 c-7 -2 -19 -2 -25 0 -7 3 -2 5 12 5 14 0 19 -2 13 -5z m105 -10 c-10
-2 -28 -2 -40 0 -13 2 -5 4 17 4 22 1 32 -1 23 -4z m-2637 -204 c13 -9 55 -26
94 -38 84 -27 97 -42 52 -57 -40 -14 -114 -4 -160 21 -35 19 -66 62 -59 83 5
16 41 11 73 -9z m1511 14 c-6 -2 -10 -8 -7 -13 7 -12 -41 -21 -72 -14 -47 11
-50 19 -8 25 50 8 104 9 87 2z m-1089 -102 c8 -30 -20 -63 -42 -51 -10 5 -21
6 -25 3 -3 -3 -6 5 -6 19 0 39 63 65 73 29z m-387 -70 c22 -7 66 -11 96 -10
31 2 54 1 51 -3 -2 -5 3 -8 11 -8 30 0 16 -28 -19 -40 -36 -12 -176 -10 -168
2 2 5 -7 13 -22 20 -24 11 -26 20 -16 67 1 2 7 -1 14 -6 6 -5 30 -15 53 -22z
m202 -123 c-12 -37 -111 -50 -166 -22 -18 8 -32 17 -32 19 0 2 21 2 48 -1 26
-3 65 -1 87 4 56 14 67 14 63 0z"/>
<path d="M3630 4420 c-8 -5 -10 -10 -5 -10 6 0 17 5 25 10 8 5 11 10 5 10 -5
0 -17 -5 -25 -10z"/>
<path d="M3690 4420 c-9 -6 -10 -10 -3 -10 6 0 15 5 18 10 8 12 4 12 -15 0z"/>
<path d="M3565 4401 c-15 -6 -8 -11 35 -21 l55 -13 -35 -13 c-19 -7 -28 -12
-20 -12 24 0 117 36 95 37 -17 1 -18 3 -5 11 11 8 7 9 -15 4 -24 -4 -27 -3
-15 6 13 10 12 11 -5 5 -11 -3 -33 -8 -50 -11 -25 -4 -26 -3 -10 5 25 12 -1
13 -30 2z m100 -21 c13 -5 14 -9 5 -9 -8 0 -24 4 -35 9 -13 5 -14 9 -5 9 8 0
24 -4 35 -9z"/>
<path d="M3792 3760 c-17 -8 -21 -15 -16 -34 5 -21 3 -23 -20 -19 -24 5 -26 3
-26 -33 0 -86 100 -127 154 -63 45 53 31 119 -29 145 -19 8 -36 14 -37 13 -2
0 -13 -4 -26 -9z"/>
<path d="M3345 3727 c-12 -10 -14 -16 -7 -21 21 -12 13 -29 -10 -23 -65 17
-64 -88 2 -126 50 -30 104 -16 133 33 27 45 22 78 -19 116 -38 36 -69 42 -99
21z"/>
</g>
</svg>
