<?xml version="1.0" standalone="no"?>
<!DOCTYPE svg PUBLIC "-//W3C//DTD SVG 20010904//EN"
 "http://www.w3.org/TR/2001/REC-SVG-20010904/DTD/svg10.dtd">
<svg version="1.0" xmlns="http://www.w3.org/2000/svg"
 width="700.000000pt" height="700.000000pt" viewBox="0 0 700.000000 700.000000"
 preserveAspectRatio="xMidYMid meet">
<metadata>
Created by potrace 1.14, written by Peter Selinger 2001-2017
</metadata>
<g transform="translate(0.000000,700.000000) scale(0.100000,-0.100000)"
fill="#000000" stroke="none">
<path d="M3200 6994 c-357 -41 -568 -86 -840 -179 -842 -289 -1548 -896 -1965
-1688 -189 -360 -311 -745 -372 -1172 -14 -105 -18 -194 -18 -455 0 -349 9
-450 61 -705 213 -1032 874 -1909 1807 -2400 360 -189 745 -311 1172 -372 187
-26 723 -26 910 0 595 84 1113 290 1587 629 152 108 258 198 411 347 503 492
838 1105 981 1796 52 255 61 356 61 705 0 349 -9 450 -61 705 -213 1032 -874
1909 -1807 2400 -352 185 -720 304 -1137 367 -109 16 -195 21 -445 23 -170 2
-326 1 -345 -1z m443 -1694 c418 -35 794 -202 1098 -487 451 -425 653 -1064
529 -1675 -74 -360 -263 -700 -529 -951 -700 -657 -1782 -657 -2482 0 -451
425 -653 1064 -529 1675 87 427 335 819 682 1080 268 202 601 330 928 357 137
12 172 12 303 1z"/>
<path d="M3640 4564 c-179 -57 -806 -213 -860 -214 -36 -1 -107 -35 -119 -58
-12 -23 3 -123 65 -431 53 -262 94 -483 94 -508 0 -13 -9 -27 -21 -34 -24 -12
-25 -11 -58 51 -11 19 -53 72 -94 118 -95 104 -107 137 -107 287 0 107 -1 114
-25 138 -48 47 -128 42 -185 -12 -43 -41 -57 -94 -47 -186 6 -59 22 -96 73
-162 19 -24 34 -55 34 -67 0 -21 -8 -25 -62 -35 -117 -23 -153 -34 -186 -58
-41 -31 -62 -72 -62 -121 0 -40 22 -106 39 -116 5 -4 3 -19 -5 -36 -16 -32 -7
-88 20 -122 8 -12 11 -35 8 -66 -3 -41 0 -52 22 -79 15 -18 35 -34 44 -37 9
-3 25 -20 34 -36 33 -59 145 -86 241 -59 45 12 100 58 116 96 6 16 27 38 46
50 19 13 42 37 50 54 9 17 32 44 51 61 21 19 42 52 55 89 12 32 25 59 29 59
16 0 21 -80 19 -274 l-2 -201 47 -90 c26 -49 56 -98 68 -107 23 -20 59 -22
121 -9 23 5 80 15 127 21 137 18 503 114 595 155 135 61 185 86 220 112 40 30
41 31 52 124 7 52 18 171 25 266 9 134 15 170 24 162 7 -6 38 -9 68 -8 47 2
60 -1 81 -21 17 -16 39 -24 72 -26 27 -2 73 -6 103 -10 37 -4 84 0 138 11 66
13 111 15 241 9 l159 -7 26 26 c20 20 26 36 26 71 0 51 -20 71 -77 82 -18 3
-35 9 -38 13 -2 4 28 18 68 30 83 27 102 41 117 88 14 40 2 84 -32 120 -27 29
-76 30 -177 3 -41 -11 -76 -18 -78 -16 -2 2 20 17 49 34 30 16 80 58 111 91
71 77 76 111 23 168 -46 50 -94 52 -153 5 -23 -17 -43 -32 -46 -32 -4 0 0 19
8 41 30 85 9 146 -61 175 -55 23 -81 5 -135 -93 -27 -50 -119 -170 -158 -207
l-31 -30 0 64 c0 109 -57 180 -145 180 -83 0 -115 -59 -80 -145 28 -65 34
-125 22 -215 -8 -67 -16 -90 -34 -107 -19 -18 -23 -33 -23 -78 0 -57 -4 -63
-31 -42 -13 10 -17 51 -23 272 -6 258 -16 403 -37 563 -14 106 -25 115 -129
110 -14 0 -60 15 -102 33 l-77 34 -1 42 c0 64 -37 77 -130 47z m64 -123 c4 -5
-3 -7 -14 -4 -23 6 -26 13 -6 13 8 0 17 -4 20 -9z m-29 -21 c-3 -5 -12 -10
-18 -10 -7 0 -6 4 3 10 19 12 23 12 15 0z m70 0 c-27 -12 -43 -12 -25 0 8 5
22 9 30 9 10 0 8 -3 -5 -9z m72 -17 c-7 -6 -46 10 -41 18 3 5 14 3 24 -3 11
-7 18 -13 17 -15z m879 -399 c-10 -14 -20 -23 -23 -21 -6 6 30 57 36 51 2 -2
-4 -15 -13 -30z m-372 -76 c5 -14 6 -38 1 -54 -7 -29 -7 -29 -26 19 -19 48
-18 72 4 64 7 -2 16 -15 21 -29z m-1910 -54 c10 -25 7 -56 -9 -99 -8 -22 -14
-65 -15 -95 l0 -55 -19 24 c-10 14 -16 31 -13 40 3 9 1 12 -5 8 -13 -8 -28 47
-18 63 3 5 1 10 -6 10 -8 0 -8 4 -1 13 6 7 12 25 14 39 4 29 35 66 54 67 7 1
15 -6 18 -15z m2485 -35 c-14 -12 -25 -16 -27 -9 -5 13 42 52 46 39 2 -6 -6
-19 -19 -30z m-938 -57 c55 -87 45 -182 -26 -236 -29 -23 -36 -25 -41 -12 -3
9 -10 13 -15 10 -6 -3 -17 0 -25 7 -12 10 -13 9 -8 -7 5 -18 5 -18 -6 -1 -6
10 -21 22 -33 27 -19 8 -17 9 13 10 102 3 128 133 36 177 -45 21 -92 5 -83
-28 4 -16 1 -19 -16 -17 -21 3 -22 -1 -20 -59 1 -56 0 -61 -18 -58 -11 2 -17
0 -14 -4 3 -5 20 -7 38 -4 28 3 33 1 34 -19 2 -18 0 -20 -7 -7 -6 10 -22 15
-49 13 -35 -1 -41 1 -41 20 0 11 -3 46 -6 76 -5 51 -5 54 10 35 15 -20 15 -20
16 5 1 29 32 70 53 70 9 0 18 9 22 19 3 11 16 26 29 34 56 37 112 19 157 -51z
m-544 -8 c17 -13 35 -33 38 -44 3 -11 11 -20 16 -20 5 0 8 -6 7 -12 -2 -7 2
-12 7 -11 6 1 10 -20 10 -47 0 -26 -3 -46 -6 -44 -4 2 -9 -5 -12 -16 -3 -11
-1 -20 3 -20 5 0 -12 -20 -38 -45 -33 -32 -54 -45 -75 -45 -15 0 -26 -4 -23
-9 12 -18 -24 -4 -49 19 -14 13 -25 20 -25 17 0 -10 -36 26 -38 38 0 6 -6 28
-13 50 -10 33 -9 50 5 97 19 68 58 118 86 113 11 -2 20 1 20 7 0 16 51 0 87
-28z m988 -111 c14 -15 25 -31 25 -36 0 -4 4 -5 10 -2 10 6 5 -15 -13 -52 -22
-46 -87 -13 -87 44 0 26 20 73 31 73 5 0 20 -12 34 -27z m578 -104 c-13 -13
-63 -21 -63 -10 0 15 14 21 44 21 22 0 27 -3 19 -11z m-2450 -49 c3 -11 2 -20
-3 -20 -4 0 -10 11 -12 25 -6 29 7 25 15 -5z m21 -46 c3 -8 2 -12 -4 -9 -6 3
-10 10 -10 16 0 14 7 11 14 -7z m-269 -64 c3 -6 -1 -7 -9 -4 -18 7 -21 14 -7
14 6 0 13 -4 16 -10z m-32 -17 c-7 -2 -19 -2 -25 0 -7 3 -2 5 12 5 14 0 19 -2
13 -5z m2318 -13 c28 -15 23 -30 -9 -30 -27 0 -52 15 -52 32 0 11 38 10 61 -2z
m-1916 -81 c16 -48 16 -54 1 -85 -15 -33 -39 -44 -51 -24 -6 10 -8 68 -6 153
1 24 3 26 20 17 11 -5 27 -33 36 -61z m2283 49 c-3 -7 -15 -13 -28 -13 -13 0
-25 6 -27 13 -3 8 6 12 27 12 21 0 30 -4 28 -12z m-1048 -16 c0 -13 -12 -22
-22 -16 -10 6 -1 24 13 24 5 0 9 -4 9 -8z m-30 -32 c0 -22 -120 -55 -230 -64
-47 -4 -57 -3 -37 4 16 5 34 13 40 18 18 14 107 31 148 29 28 -2 35 1 31 11
-4 12 -1 12 18 2 20 -11 22 -10 17 4 -4 10 -3 15 3 11 6 -3 10 -10 10 -15z
m663 -37 c-13 -2 -33 -2 -45 0 -13 2 -3 4 22 4 25 0 35 -2 23 -4z m-2296 -37
c15 -13 24 -28 20 -32 -11 -11 -77 26 -77 43 0 20 26 15 57 -11z m1493 -133
c-8 -3 -19 -11 -25 -17 -7 -9 -19 -10 -45 -2 l-35 10 45 7 c25 3 52 6 60 7 13
0 13 0 0 -5z m-1490 -53 c0 -5 6 -10 14 -10 8 0 16 -6 19 -14 4 -10 -5 -8 -34
6 -44 21 -49 28 -19 28 11 0 20 -4 20 -10z m35 -150 c3 -5 2 -10 -4 -10 -5 0
-13 5 -16 10 -3 6 -2 10 4 10 5 0 13 -4 16 -10z m98 -107 c-13 -2 -33 -2 -45
0 -13 2 -3 4 22 4 25 0 35 -2 23 -4z"/>
<path d="M3711 3674 c0 -11 3 -14 6 -6 3 7 2 16 -1 19 -3 4 -6 -2 -5 -13z"/>
<path d="M3340 3725 c-10 -12 -10 -18 0 -30 14 -17 7 -19 -20 -5 -15 8 -21 6
-30 -9 -46 -86 62 -177 147 -123 30 18 34 28 40 82 7 69 -97 134 -137 85z"/>
</g>
</svg>
